<svg id="Layer_1" height="512" viewBox="0 0 128 128" width="512" xmlns="http://www.w3.org/2000/svg" data-name="Layer 1"><path d="m33.783 35.951h46.5a0 0 0 0 1 0 0v62.959a4.718 4.718 0 0 1 -4.718 4.718h-37.065a4.718 4.718 0 0 1 -4.718-4.718v-62.959a0 0 0 0 1 .001 0z" fill="#fedd55"/><path d="m38.5 103.627h37.069a4.718 4.718 0 0 1 4.718 4.718v2.655a0 0 0 0 1 0 0h-46.5a0 0 0 0 1 0 0v-2.655a4.718 4.718 0 0 1 4.713-4.718z" fill="#9ffcfe"/><path d="m87.138 48.239h-6.851v6.861h6.508a5.408 5.408 0 0 1 5.405 5.406v17.621a5.408 5.408 0 0 1 -5.408 5.408h-6.505v6.859h6.851a11.675 11.675 0 0 0 11.675-11.674v-18.807a11.675 11.675 0 0 0 -11.675-11.674z" fill="#9ffcfe"/><g fill="#a24f41"><rect height="39.03" rx="2.698" width="6.12" x="54.01" y="55.098"/><rect height="39.03" rx="2.698" width="6.12" x="66.168" y="55.098"/><rect height="39.03" rx="2.698" width="6.12" x="41.782" y="55.098"/></g><path d="m77.879 24.746a8.235 8.235 0 0 0 -8.517 4.31 8.84 8.84 0 0 0 -8.9-4.311 11.322 11.322 0 0 0 -21.822 1.273 8.31 8.31 0 0 0 -3.388 16.233l.107.029a7.861 7.861 0 0 1 5.987 7.53v23.79a3.729 3.729 0 0 0 3.4 3.79 3.592 3.592 0 0 0 3.785-3.586v-27.019a8.26 8.26 0 0 0 8.98-5.243 8.948 8.948 0 0 0 7.653.315 5.873 5.873 0 0 0 11.144-.747c.114 0 .226.017.341.017a8.237 8.237 0 0 0 1.232-16.381z" fill="#e5feff"/></svg>